<svg width="28" height="27" viewBox="0 0 28 27" fill="none" xmlns="http://www.w3.org/2000/svg">
<g filter="url(#filter0_i_1008_1436)">
<path d="M10.4335 0C6.90321 0 4.0332 2.87001 4.0332 6.40025C4.0332 9.86313 6.74152 12.6658 10.2718 12.787C10.3796 12.7736 10.4874 12.7736 10.5682 12.787H10.6356H10.6625C14.1119 12.6658 16.8202 9.86313 16.8337 6.40025C16.8337 2.87001 13.9637 0 10.4335 0Z" fill="white"/>
<path d="M17.2799 16.3696C13.5206 13.8634 7.38989 13.8634 3.60364 16.3696C1.89241 17.515 0.949219 19.0645 0.949219 20.7218C0.949219 22.3791 1.89241 23.9152 3.59017 25.047C5.47656 26.3136 7.95581 26.9469 10.4351 26.9469C12.9143 26.9469 15.3935 26.3136 17.2799 25.047C18.9777 23.9017 19.9209 22.3657 19.9209 20.6949C19.9074 19.0375 18.9777 17.5015 17.2799 16.3696Z" fill="white"/>
<path d="M25.2412 7.19276C25.4568 9.80676 23.5973 12.0973 21.0238 12.4072C21.0103 12.4072 21.0103 12.4072 20.9968 12.4072H20.9564C20.8756 12.4072 20.7947 12.4072 20.7273 12.4342C19.4203 12.5015 18.2211 12.0838 17.3184 11.3158C18.7062 10.0762 19.5012 8.2168 19.3395 6.19567C19.2452 5.10426 18.8679 4.10716 18.302 3.25829C18.814 3.00228 19.4069 2.84059 20.0132 2.78669C22.6542 2.55763 25.0121 4.52486 25.2412 7.19276Z" fill="white"/>
<path d="M27.9346 19.6594C27.8269 20.9664 26.9915 22.0983 25.5901 22.8663C24.2427 23.6074 22.545 23.9577 20.8607 23.9173C21.8308 23.0415 22.3967 21.9501 22.5045 20.7913C22.6393 19.1205 21.8443 17.517 20.2543 16.237C19.3516 15.5229 18.3006 14.9569 17.1553 14.5392C20.1331 13.6769 23.8789 14.2563 26.183 16.1157C27.4226 17.1128 28.0559 18.3659 27.9346 19.6594Z" fill="white"/>
</g>
<defs>
<filter id="filter0_i_1008_1436" x="-3.05078" y="-4" width="35" height="34.947" filterUnits="userSpaceOnUse" color-interpolation-filters="sRGB">
<feFlood flood-opacity="0" result="BackgroundImageFix"/>
<feBlend mode="normal" in="SourceGraphic" in2="BackgroundImageFix" result="shape"/>
<feColorMatrix in="SourceAlpha" type="matrix" values="0 0 0 0 0 0 0 0 0 0 0 0 0 0 0 0 0 0 127 0" result="hardAlpha"/>
<feOffset dy="4"/>
<feGaussianBlur stdDeviation="2"/>
<feComposite in2="hardAlpha" operator="arithmetic" k2="-1" k3="1"/>
<feColorMatrix type="matrix" values="0 0 0 0 0 0 0 0 0 0 0 0 0 0 0 0 0 0 0.25 0"/>
<feBlend mode="normal" in2="shape" result="effect1_innerShadow_1008_1436"/>
</filter>
</defs>
</svg>
